# xmcd
#
# Track frame offsets: 
#        160
#        17060
#        37481
#        56550
#        77397
#        93923
#        111695
#        130762
#        150964
#        174723
#        189928
#
# Disc length: 2755 seconds
#
# Revision: 1
# Processed by: cddbd v1.4PL0 Copyright (c) Steve Scherf et al.
# Submitted via: ExactAudioCopy v0.95a3
#
DISCID=880ac10b
DTITLE=Профессор Лебединский - Смеяться или плакать
DYEAR=1998
DGENRE=Pop/Funk
TTITLE0=Лай-лай-лай (v 2)
TTITLE1=Там вдали, у метро
TTITLE2=Максим не знал
TTITLE3=Зачем, Герасим?
TTITLE4=Калямба-балямба
TTITLE5=Я спросил у ясеня
TTITLE6=Человек собаке друг
TTITLE7=Подруга-тоска
TTITLE8=Вот и вся любовь
TTITLE9=Доче
TTITLE10=Лай-лай-лай (v 1)
EXTD=
EXTT0=
EXTT1=
EXTT2=
EXTT3=
EXTT4=
EXTT5=
EXTT6=
EXTT7=
EXTT8=
EXTT9=
EXTT10=
PLAYORDER=
